<?xml version="1.0" encoding="UTF-8"?>
<svg id="Layer_1" data-name="Layer 1" xmlns="http://www.w3.org/2000/svg" viewBox="0 0 442.16 95.31">
  <defs>
    <style>
      .cls-1 {
        fill: #231f20;
      }

      .cls-2 {
        fill: #010101;
      }
    </style>
  </defs>
  <g>
    <path class="cls-1" d="M2.97,62.61c3.14,1.53,5.98,2.59,8.52,3.17,2.54,.58,5,.87,7.39,.87,1.36,0,2.61-.21,3.73-.64,1.13-.43,2.1-.99,2.92-1.69,.82-.7,1.46-1.49,1.92-2.38,.46-.89,.69-1.79,.69-2.71,0-.82-.15-1.59-.43-2.3-.29-.72-.84-1.42-1.64-2.12-.8-.7-1.93-1.41-3.38-2.12-1.45-.72-3.32-1.5-5.6-2.35-2.15-.75-4.19-1.52-6.11-2.3-1.93-.78-3.61-1.72-5.04-2.81-1.43-1.09-2.57-2.42-3.4-3.99-.84-1.57-1.25-3.55-1.25-5.93s.45-4.42,1.35-6.19,2.17-3.27,3.81-4.48c1.64-1.21,3.58-2.12,5.83-2.74,2.25-.61,4.72-.92,7.42-.92,3.31,0,6.3,.32,8.98,.97,2.68,.65,5.26,1.62,7.75,2.92l-2.86,7.01c-2.42-.95-4.57-1.64-6.45-2.07-1.88-.43-3.73-.64-5.58-.64-3.38,0-5.99,.53-7.83,1.59-1.84,1.06-2.76,2.76-2.76,5.11,0,1.16,.34,2.1,1.02,2.81,.68,.72,1.56,1.32,2.63,1.82,1.07,.49,2.29,.94,3.66,1.33,1.36,.39,2.73,.81,4.09,1.25,2.83,.96,5.23,1.98,7.19,3.07,1.96,1.09,3.55,2.3,4.76,3.63,1.21,1.33,2.09,2.8,2.63,4.4,.55,1.6,.82,3.38,.82,5.32,0,2.11-.45,4.09-1.36,5.93-.9,1.84-2.17,3.45-3.79,4.83-1.62,1.38-3.56,2.47-5.83,3.27-2.27,.8-4.77,1.2-7.49,1.2-2.25,0-4.34-.15-6.27-.46s-3.7-.69-5.32-1.15-3.07-.97-4.35-1.53c-1.28-.56-2.4-1.1-3.35-1.61l2.97-7.37Z"/>
    <path class="cls-1" d="M58.41,52.33c.31,2.28,.84,4.31,1.61,6.09,.77,1.77,1.83,3.27,3.2,4.5,1.36,1.23,3.03,2.16,5.01,2.79,1.98,.63,4.3,.95,6.96,.95,2.46,0,4.79-.38,7.01-1.15,2.22-.77,4.23-1.64,6.04-2.63l3.07,6.96c-1.4,.79-2.79,1.48-4.17,2.07-1.38,.6-2.8,1.11-4.25,1.53-1.45,.43-2.95,.75-4.5,.97-1.55,.22-3.21,.33-4.99,.33-8.12,0-14.26-2.32-18.44-6.96-4.18-4.64-6.27-11.47-6.27-20.51,0-4.23,.57-7.97,1.71-11.23,1.14-3.26,2.76-6,4.86-8.24,2.1-2.23,4.62-3.93,7.57-5.09,2.95-1.16,6.23-1.74,9.85-1.74,2.9,0,5.6,.44,8.11,1.3,2.51,.87,4.68,2.05,6.52,3.55,1.84,1.5,3.29,3.29,4.35,5.37,1.06,2.08,1.59,4.31,1.59,6.7,0,1.98-.28,3.85-.84,5.6-.56,1.76-1.52,3.28-2.86,4.58-1.35,1.3-3.15,2.33-5.4,3.09-2.25,.77-5.05,1.15-8.39,1.15h-17.34Zm13.91-23.17c-2.08,0-3.93,.38-5.55,1.15-1.62,.77-3.01,1.82-4.17,3.17-1.16,1.35-2.1,2.94-2.81,4.78s-1.19,3.82-1.43,5.93h15.86c1.47,0,2.78-.07,3.94-.2,1.16-.14,2.15-.4,2.97-.79,.82-.39,1.44-.95,1.87-1.69,.43-.73,.64-1.71,.64-2.94,0-1.67-.36-3.09-1.07-4.27s-1.62-2.15-2.71-2.92c-1.09-.77-2.3-1.33-3.63-1.69-1.33-.36-2.63-.54-3.89-.54Z"/>
    <path class="cls-1" d="M107.16,29.62c1.16-.78,2.63-1.67,4.42-2.66,1.79-.99,3.83-1.93,6.11-2.81,2.28-.89,4.78-1.64,7.49-2.25,2.71-.61,5.55-.92,8.52-.92,3.31,0,6.09,.53,8.36,1.59,2.27,1.06,4.08,2.46,5.45,4.22,1.36,1.76,2.34,3.79,2.94,6.11,.6,2.32,.9,4.74,.9,7.26v33.66h-9.82V40.72c0-1.3-.13-2.62-.38-3.96-.26-1.35-.74-2.57-1.44-3.68-.7-1.11-1.67-2.01-2.92-2.71-1.25-.7-2.84-1.05-4.79-1.05-1.37,0-2.77,.18-4.2,.54-1.44,.36-2.82,.79-4.15,1.3-1.33,.51-2.58,1.07-3.74,1.66s-2.14,1.13-2.92,1.61v39.39h-9.82V29.62Z"/>
    <path class="cls-1" d="M172.89,3.38c2.01,0,3.54,.43,4.58,1.28,1.04,.85,1.56,2.17,1.56,3.94,0,1.53-.47,2.78-1.41,3.73-.94,.96-2.48,1.43-4.63,1.43-4.19,0-6.29-1.76-6.29-5.27,0-1.77,.53-3.07,1.59-3.89,1.06-.82,2.59-1.23,4.6-1.23Zm-4.86,70.44V22.1h9.82v51.71h-9.82Z"/>
    <path class="cls-1" d="M193.85,62.61c3.14,1.53,5.98,2.59,8.52,3.17,2.54,.58,5,.87,7.39,.87,1.36,0,2.61-.21,3.73-.64,1.13-.43,2.1-.99,2.92-1.69,.82-.7,1.46-1.49,1.92-2.38,.46-.89,.69-1.79,.69-2.71,0-.82-.14-1.59-.43-2.3s-.84-1.42-1.64-2.12c-.8-.7-1.93-1.41-3.38-2.12-1.45-.72-3.32-1.5-5.6-2.35-2.15-.75-4.19-1.52-6.11-2.3-1.93-.78-3.61-1.72-5.04-2.81-1.43-1.09-2.57-2.42-3.4-3.99-.84-1.57-1.25-3.55-1.25-5.93s.45-4.42,1.35-6.19,2.17-3.27,3.81-4.48c1.64-1.21,3.58-2.12,5.83-2.74,2.25-.61,4.72-.92,7.42-.92,3.31,0,6.3,.32,8.98,.97,2.68,.65,5.26,1.62,7.75,2.92l-2.86,7.01c-2.42-.95-4.57-1.64-6.45-2.07-1.88-.43-3.73-.64-5.58-.64-3.38,0-5.99,.53-7.83,1.59-1.84,1.06-2.76,2.76-2.76,5.11,0,1.16,.34,2.1,1.02,2.81,.68,.72,1.56,1.32,2.63,1.82,1.07,.49,2.29,.94,3.66,1.33,1.36,.39,2.73,.81,4.09,1.25,2.83,.96,5.23,1.98,7.19,3.07,1.96,1.09,3.55,2.3,4.76,3.63,1.21,1.33,2.09,2.8,2.63,4.4,.55,1.6,.82,3.38,.82,5.32,0,2.11-.45,4.09-1.35,5.93-.9,1.84-2.17,3.45-3.79,4.83-1.62,1.38-3.56,2.47-5.83,3.27-2.27,.8-4.77,1.2-7.49,1.2-2.25,0-4.34-.15-6.27-.46s-3.7-.69-5.32-1.15-3.07-.97-4.35-1.53c-1.28-.56-2.4-1.1-3.35-1.61l2.97-7.37Z"/>
    <path class="cls-1" d="M242.5,0h9.82V26.09c.96-.51,2.07-1.07,3.35-1.66s2.66-1.15,4.15-1.66c1.49-.51,3.04-.94,4.66-1.28,1.62-.34,3.24-.51,4.84-.51,3.21,0,5.91,.61,8.09,1.82,2.19,1.21,3.94,2.77,5.25,4.68,1.32,1.91,2.25,4.03,2.82,6.37s.85,4.65,.85,6.93v33.04h-9.72V40.72c0-.41-.02-.99-.08-1.74s-.17-1.55-.36-2.4c-.19-.85-.49-1.71-.9-2.58s-.98-1.66-1.72-2.38c-.74-.72-1.66-1.3-2.77-1.74-1.11-.44-2.45-.67-4.02-.67-1.09,0-2.35,.17-3.77,.51-1.42,.34-2.82,.76-4.2,1.25-1.38,.49-2.67,1.03-3.84,1.61s-2.06,1.09-2.64,1.53v39.69h-9.82V0Z"/>
    <path class="cls-1" d="M299.73,48.03c0-4.43,.65-8.33,1.95-11.69,1.3-3.36,3.1-6.18,5.4-8.47,2.3-2.28,5.04-4.01,8.22-5.17,3.18-1.16,6.62-1.74,10.34-1.74,1.98,0,3.89,.14,5.74,.41,1.84,.27,3.59,.62,5.25,1.05,1.66,.43,3.22,.92,4.69,1.48s2.82,1.13,4.05,1.71v48.18h-8.54l-1.23-5.01c-1.02,.79-2.07,1.53-3.15,2.25s-2.23,1.35-3.45,1.89c-1.23,.55-2.58,.98-4.04,1.3-1.47,.32-3.12,.49-4.96,.49-2.93,0-5.64-.55-8.11-1.64-2.47-1.09-4.61-2.74-6.42-4.94-1.81-2.2-3.21-4.98-4.22-8.34s-1.51-7.29-1.51-11.79Zm9.62-.21c0,3.24,.33,6.03,1,8.36,.67,2.34,1.59,4.27,2.76,5.81,1.18,1.53,2.59,2.67,4.25,3.4,1.65,.73,3.47,1.1,5.45,1.1,2.52,0,4.93-.45,7.21-1.36,2.28-.9,4.13-2.02,5.52-3.35V31.15c-.31-.14-.78-.31-1.41-.54-.63-.22-1.39-.43-2.28-.64-.89-.21-1.87-.38-2.94-.54s-2.19-.23-3.35-.23c-2.39,0-4.58,.41-6.57,1.23-2,.82-3.71,2.01-5.14,3.58s-2.54,3.51-3.32,5.83c-.78,2.32-1.18,4.98-1.18,7.98Z"/>
  </g>
  <path class="cls-2" d="M422.61,5.39c-.74,.21-1.39,.81-1.8,1.62-.28,.56-.35,.86-.39,1.76-.08,1.86,.33,2.96,1.87,5.04,2.64,3.58,4.42,6.58,6.22,10.48,2.91,6.28,4.55,12.3,5.38,19.6,.29,2.68,.35,8.49,.11,11.37-.71,8.38-2.83,15.92-6.48,23.09-1.17,2.29-3.23,5.66-4.67,7.62-2.1,2.87-2.39,3.55-2.39,5.62,0,1.16,.02,1.31,.35,1.95,.97,1.9,2.97,2.31,5.21,1.07,1.14-.62,3.01-2.88,5.17-6.28,6.18-9.69,9.67-20.09,10.76-32.06,.23-2.55,.27-8.77,.06-11.25-.96-11.49-4.13-21.65-9.69-30.96-1.77-2.99-4.42-6.68-5.32-7.43-1.47-1.21-3-1.64-4.39-1.24Z"/>
  <path class="cls-2" d="M406.08,13.05c-1.44,.37-2.35,1.78-2.36,3.68,0,1.5,.44,2.79,1.48,4.28,4.39,6.29,6.92,12.07,8.36,19.08,1.21,5.93,1.34,12.56,.35,18.44-1.26,7.54-4.11,14.52-8.38,20.53-1.31,1.84-1.82,3.18-1.82,4.75,0,2.58,1.65,4.12,3.92,3.7,1.81-.34,3.12-1.48,5.11-4.46,4.66-6.96,7.73-14.81,9.06-23.21,1.27-7.99,.96-16-.93-23.87-1.4-5.81-4.24-12.5-7.35-17.3-1.52-2.35-2.03-3.06-2.8-3.85-1.42-1.48-3.18-2.15-4.63-1.77Z"/>
  <path class="cls-2" d="M389.31,20.77c-1.26,.33-2.12,1.57-2.25,3.27-.13,1.68,.32,2.96,1.89,5.48,1.42,2.29,2.4,4.17,3.2,6.14,2.07,5.19,2.93,10.06,2.78,15.73-.2,7.3-2.26,14.01-6.16,19.92-1.33,2.01-1.82,3.5-1.7,5.14,.14,2.02,1.18,3.26,2.83,3.41,1.97,.16,3.83-1.14,5.65-3.94,3.82-5.94,6.2-12.6,7.07-19.79,1-8.21-.12-16.45-3.3-24.35-.95-2.35-2.64-5.51-4.12-7.68-1.3-1.92-2.64-2.99-4.17-3.34-.71-.16-1.06-.16-1.7,0Z"/>
  <path class="cls-2" d="M371.96,28.77c-1.53,.88-2.03,3.44-1.17,5.91,.13,.37,.53,1.21,.88,1.87,2.56,4.71,3.68,8.87,3.68,13.69,0,2.93-.34,5.22-1.23,8.11-.48,1.6-1.65,4.31-2.28,5.31-.48,.76-1,1.95-1.24,2.79-.23,.87-.27,2.53-.07,3.3,.21,.77,.83,1.69,1.35,2.02,1.84,1.11,4.82-.32,6.47-3.1,1.82-3.07,3.13-6.29,3.93-9.7,2.16-9.07,.96-18.18-3.47-26.32-.96-1.74-2.07-2.96-3.32-3.63-.81-.43-.99-.48-1.96-.52-.95-.04-1.12-.01-1.59,.27Z"/>
</svg>