<?xml version="1.0" encoding="UTF-8"?>
<svg id="Layer_1" data-name="Layer 1" xmlns="http://www.w3.org/2000/svg" viewBox="0 0 587.95 127.49">
  <defs>
    <style>
      .cls-1 {
        stroke: #000;
      }

      .cls-1, .cls-2 {
        fill: none;
        stroke-miterlimit: 10;
      }

      .cls-2 {
        stroke: #010101;
      }
    </style>
  </defs>
  <g>
    <path class="cls-1" d="M4.57,83.59c4.16,2.04,7.93,3.44,11.3,4.21,3.37,.77,6.64,1.15,9.81,1.15,1.81,0,3.46-.28,4.96-.85,1.49-.56,2.78-1.31,3.87-2.24,1.09-.93,1.94-1.98,2.55-3.16,.61-1.18,.92-2.38,.92-3.6,0-1.09-.19-2.1-.58-3.05-.38-.95-1.11-1.89-2.17-2.82-1.06-.93-2.56-1.87-4.48-2.82-1.92-.95-4.4-1.99-7.43-3.12-2.85-.99-5.56-2.01-8.11-3.05-2.56-1.04-4.79-2.29-6.69-3.73-1.9-1.45-3.41-3.21-4.51-5.3-1.11-2.08-1.66-4.71-1.66-7.87s.6-5.86,1.8-8.21,2.89-4.33,5.06-5.94c2.17-1.61,4.75-2.82,7.74-3.63,2.99-.82,6.27-1.22,9.84-1.22,4.39,0,8.36,.43,11.91,1.29,3.55,.86,6.98,2.15,10.28,3.87l-3.8,9.3c-3.21-1.27-6.06-2.18-8.55-2.75-2.49-.57-4.96-.85-7.4-.85-4.48,0-7.94,.7-10.39,2.1-2.44,1.4-3.67,3.67-3.67,6.79,0,1.54,.45,2.78,1.36,3.73,.9,.95,2.07,1.75,3.5,2.41,1.43,.66,3.04,1.25,4.85,1.76,1.81,.52,3.62,1.08,5.43,1.66,3.76,1.27,6.94,2.63,9.54,4.07,2.6,1.45,4.71,3.05,6.31,4.82,1.61,1.76,2.77,3.71,3.5,5.84,.72,2.13,1.09,4.48,1.09,7.06,0,2.81-.6,5.43-1.8,7.87-1.2,2.44-2.87,4.58-5.02,6.42-2.15,1.83-4.73,3.28-7.74,4.35-3.01,1.06-6.33,1.59-9.95,1.59-2.99,0-5.76-.2-8.32-.61s-4.91-.92-7.06-1.53-4.07-1.29-5.77-2.04c-1.7-.75-3.18-1.46-4.45-2.14l3.94-9.78Z"/>
    <path class="cls-1" d="M78.15,69.95c.41,3.03,1.12,5.73,2.14,8.08,1.02,2.35,2.43,4.35,4.24,5.97,1.81,1.63,4.03,2.86,6.65,3.7,2.62,.84,5.7,1.26,9.23,1.26,3.26,0,6.36-.51,9.3-1.53,2.94-1.02,5.61-2.18,8.01-3.5l4.07,9.23c-1.86,1.04-3.7,1.96-5.53,2.75-1.83,.79-3.71,1.47-5.63,2.04-1.92,.56-3.92,.99-5.97,1.29-2.06,.29-4.27,.44-6.62,.44-10.77,0-18.93-3.08-24.47-9.23-5.54-6.15-8.32-15.23-8.32-27.22,0-5.61,.76-10.58,2.27-14.9,1.52-4.32,3.67-7.96,6.45-10.93,2.78-2.96,6.13-5.22,10.05-6.75,3.91-1.54,8.27-2.31,13.07-2.31,3.85,0,7.43,.58,10.76,1.73,3.33,1.15,6.21,2.73,8.66,4.72,2.44,1.99,4.37,4.37,5.77,7.13,1.4,2.76,2.1,5.73,2.1,8.89,0,2.63-.37,5.1-1.12,7.43-.75,2.33-2.01,4.36-3.8,6.08-1.79,1.72-4.17,3.09-7.16,4.11-2.99,1.02-6.7,1.53-11.13,1.53h-23.01Zm18.46-30.75c-2.76,0-5.22,.51-7.37,1.53-2.15,1.02-3.99,2.42-5.53,4.21-1.54,1.79-2.78,3.9-3.73,6.35s-1.58,5.07-1.9,7.87h21.04c1.95,0,3.69-.09,5.23-.27,1.54-.18,2.85-.53,3.94-1.05,1.09-.52,1.91-1.27,2.48-2.24,.56-.97,.85-2.27,.85-3.9,0-2.22-.47-4.11-1.43-5.67s-2.15-2.85-3.6-3.87c-1.45-1.02-3.05-1.76-4.82-2.24-1.76-.47-3.49-.71-5.16-.71Z"/>
    <path class="cls-1" d="M142.85,39.81c1.54-1.04,3.5-2.22,5.87-3.53,2.38-1.31,5.08-2.56,8.11-3.73,3.03-1.18,6.35-2.17,9.95-2.99,3.6-.82,7.37-1.22,11.3-1.22,4.39,0,8.09,.7,11.1,2.1,3.01,1.4,5.42,3.27,7.23,5.6,1.81,2.33,3.11,5.04,3.9,8.11,.79,3.08,1.19,6.29,1.19,9.64v44.67h-13.03V54.54c0-1.72-.17-3.47-.51-5.26-.34-1.79-.98-3.42-1.9-4.89-.93-1.47-2.22-2.67-3.88-3.6-1.66-.93-3.78-1.39-6.36-1.39-1.81,0-3.67,.24-5.58,.71-1.9,.48-3.74,1.05-5.51,1.73-1.77,.68-3.42,1.41-4.97,2.21s-2.83,1.5-3.88,2.14v52.27h-13.03V39.81Z"/>
    <path class="cls-1" d="M230.08,4.98c2.67,0,4.69,.57,6.08,1.7,1.38,1.13,2.07,2.87,2.07,5.23,0,2.04-.62,3.69-1.87,4.95-1.25,1.27-3.29,1.9-6.14,1.9-5.57,0-8.35-2.33-8.35-6.99,0-2.35,.7-4.07,2.1-5.16,1.4-1.09,3.44-1.63,6.11-1.63Zm-6.45,93.48V29.83h13.03V98.46h-13.03Z"/>
    <path class="cls-1" d="M257.91,83.59c4.16,2.04,7.93,3.44,11.3,4.21,3.37,.77,6.64,1.15,9.81,1.15,1.81,0,3.46-.28,4.96-.85,1.49-.56,2.78-1.31,3.87-2.24,1.09-.93,1.94-1.98,2.55-3.16,.61-1.18,.92-2.38,.92-3.6,0-1.09-.19-2.1-.58-3.05s-1.11-1.89-2.17-2.82c-1.06-.93-2.56-1.87-4.48-2.82-1.92-.95-4.4-1.99-7.43-3.12-2.85-.99-5.56-2.01-8.11-3.05-2.56-1.04-4.79-2.29-6.69-3.73-1.9-1.45-3.41-3.21-4.51-5.3-1.11-2.08-1.66-4.71-1.66-7.87s.6-5.86,1.8-8.21,2.89-4.33,5.06-5.94c2.17-1.61,4.75-2.82,7.74-3.63,2.99-.82,6.27-1.22,9.84-1.22,4.39,0,8.36,.43,11.91,1.29,3.55,.86,6.98,2.15,10.28,3.87l-3.8,9.3c-3.21-1.27-6.06-2.18-8.55-2.75-2.49-.57-4.96-.85-7.4-.85-4.48,0-7.94,.7-10.39,2.1-2.44,1.4-3.67,3.67-3.67,6.79,0,1.54,.45,2.78,1.36,3.73,.9,.95,2.07,1.75,3.5,2.41,1.43,.66,3.04,1.25,4.85,1.76,1.81,.52,3.62,1.08,5.43,1.66,3.76,1.27,6.94,2.63,9.54,4.07,2.6,1.45,4.71,3.05,6.31,4.82,1.61,1.76,2.77,3.71,3.5,5.84,.72,2.13,1.09,4.48,1.09,7.06,0,2.81-.6,5.43-1.8,7.87-1.2,2.44-2.88,4.58-5.03,6.42-2.15,1.83-4.73,3.28-7.74,4.35-3.01,1.06-6.33,1.59-9.95,1.59-2.99,0-5.76-.2-8.32-.61s-4.91-.92-7.06-1.53-4.07-1.29-5.77-2.04c-1.7-.75-3.18-1.46-4.45-2.14l3.94-9.78Z"/>
    <path class="cls-1" d="M322.47,.5h13.03V35.12c1.27-.68,2.75-1.41,4.45-2.21s3.54-1.53,5.51-2.21c1.97-.68,4.03-1.24,6.19-1.7,2.15-.45,4.3-.68,6.43-.68,4.26,0,7.84,.8,10.74,2.41,2.9,1.61,5.22,3.68,6.97,6.21,1.75,2.54,2.99,5.35,3.74,8.45,.75,3.1,1.12,6.17,1.12,9.2v43.85h-12.9V54.54c0-.54-.03-1.31-.1-2.31s-.23-2.06-.48-3.19c-.25-1.13-.65-2.27-1.19-3.43s-1.3-2.21-2.28-3.16c-.98-.95-2.2-1.72-3.67-2.31-1.48-.59-3.25-.88-5.34-.88-1.45,0-3.12,.23-5,.68-1.88,.45-3.74,1.01-5.58,1.66-1.84,.66-3.54,1.37-5.1,2.14s-2.73,1.45-3.5,2.04v52.68h-13.03V.5Z"/>
    <path class="cls-1" d="M398.43,64.25c0-5.88,.86-11.05,2.58-15.51,1.72-4.46,4.11-8.2,7.17-11.24,3.06-3.03,6.69-5.32,10.91-6.86,4.21-1.54,8.79-2.31,13.73-2.31,2.63,0,5.17,.18,7.61,.54,2.45,.36,4.77,.83,6.97,1.39,2.2,.57,4.27,1.22,6.22,1.97s3.74,1.51,5.37,2.27v63.95h-11.33l-1.64-6.65c-1.36,1.04-2.75,2.04-4.17,2.99s-2.95,1.79-4.58,2.51c-1.63,.72-3.42,1.3-5.36,1.73-1.95,.43-4.14,.64-6.58,.64-3.89,0-7.48-.72-10.76-2.17-3.28-1.45-6.12-3.63-8.52-6.55-2.4-2.92-4.26-6.61-5.6-11.06s-2-9.67-2-15.65Zm12.76-.27c0,4.3,.44,8,1.32,11.1,.88,3.1,2.1,5.67,3.67,7.7,1.56,2.04,3.44,3.54,5.63,4.51,2.19,.97,4.61,1.46,7.23,1.46,3.35,0,6.54-.6,9.57-1.8,3.03-1.2,5.48-2.68,7.33-4.45V41.84c-.41-.18-1.03-.42-1.87-.71-.84-.29-1.84-.58-3.02-.85-1.18-.27-2.48-.51-3.9-.71s-2.91-.31-4.45-.31c-3.17,0-6.08,.54-8.72,1.63-2.65,1.09-4.92,2.67-6.82,4.75s-3.37,4.66-4.41,7.74c-1.04,3.08-1.56,6.61-1.56,10.59Z"/>
  </g>
  <path class="cls-2" d="M561.51,7.65c-.98,.29-1.84,1.07-2.39,2.15-.37,.74-.46,1.14-.51,2.33-.11,2.47,.43,3.92,2.48,6.69,3.5,4.75,5.87,8.74,8.26,13.9,3.86,8.34,6.04,16.32,7.14,26.01,.39,3.56,.46,11.27,.14,15.09-.95,11.12-3.75,21.13-8.6,30.64-1.55,3.04-4.29,7.51-6.2,10.11-2.79,3.81-3.18,4.71-3.18,7.46,0,1.54,.03,1.74,.46,2.58,1.29,2.52,3.94,3.07,6.91,1.43,1.52-.82,4-3.82,6.86-8.34,8.2-12.86,12.83-26.67,14.29-42.55,.31-3.39,.36-11.64,.08-14.93-1.27-15.24-5.48-28.73-12.86-41.09-2.36-3.97-5.87-8.87-7.07-9.86-1.95-1.61-3.98-2.18-5.83-1.64Z"/>
  <path class="cls-2" d="M539.57,17.82c-1.91,.49-3.11,2.36-3.13,4.88,0,2,.59,3.71,1.97,5.69,5.83,8.35,9.19,16.02,11.09,25.32,1.61,7.87,1.78,16.67,.46,24.47-1.67,10.01-5.45,19.27-11.12,27.25-1.74,2.45-2.42,4.23-2.42,6.31,0,3.42,2.18,5.47,5.21,4.91,2.4-.45,4.14-1.96,6.79-5.92,6.18-9.24,10.26-19.66,12.02-30.81,1.69-10.6,1.27-21.23-1.24-31.68-1.86-7.71-5.62-16.59-9.76-22.96-2.01-3.12-2.7-4.06-3.72-5.12-1.89-1.96-4.21-2.85-6.15-2.35Z"/>
  <path class="cls-2" d="M517.31,28.06c-1.67,.44-2.82,2.08-2.99,4.34-.17,2.23,.42,3.92,2.51,7.28,1.89,3.04,3.19,5.53,4.25,8.15,2.74,6.89,3.89,13.35,3.69,20.88-.26,9.69-3.01,18.6-8.18,26.43-1.77,2.67-2.42,4.65-2.26,6.83,.19,2.68,1.56,4.33,3.75,4.53,2.62,.22,5.08-1.51,7.5-5.23,5.07-7.88,8.23-16.72,9.39-26.26,1.33-10.9-.15-21.84-4.38-32.32-1.25-3.12-3.5-7.31-5.47-10.2-1.72-2.55-3.5-3.97-5.53-4.43-.95-.22-1.41-.22-2.26,0Z"/>
  <path class="cls-2" d="M494.29,38.68c-2.03,1.17-2.7,4.56-1.55,7.85,.17,.49,.7,1.61,1.16,2.48,3.39,6.26,4.88,11.77,4.88,18.16,0,3.89-.45,6.93-1.63,10.77-.64,2.13-2.18,5.72-3.02,7.04-.64,1.01-1.33,2.58-1.64,3.71-.31,1.16-.36,3.35-.09,4.38,.28,1.02,1.1,2.25,1.8,2.68,2.45,1.48,6.4-.42,8.58-4.11,2.42-4.08,4.15-8.35,5.22-12.88,2.87-12.04,1.27-24.13-4.6-34.93-1.27-2.31-2.74-3.92-4.4-4.81-1.07-.57-1.32-.64-2.6-.69-1.25-.05-1.49-.02-2.11,.35Z"/>
</svg>