<?xml version="1.0" encoding="UTF-8"?>
<svg id="Layer_1" data-name="Layer 1" xmlns="http://www.w3.org/2000/svg" viewBox="0 0 446.44 96.99">
  <defs>
    <style>
      .cls-1 {
        fill: none;
        stroke: #fff;
        stroke-miterlimit: 10;
      }
    </style>
  </defs>
  <g>
    <path class="cls-1" d="M3.62,63.55c3.16,1.55,6.02,2.61,8.58,3.19,2.56,.59,5.04,.88,7.44,.88,1.37,0,2.63-.21,3.76-.64s2.11-1,2.94-1.7c.82-.7,1.47-1.5,1.93-2.4s.7-1.8,.7-2.73c0-.82-.15-1.6-.44-2.32-.29-.72-.84-1.43-1.65-2.14-.81-.7-1.94-1.42-3.4-2.14-1.46-.72-3.34-1.51-5.64-2.37-2.16-.75-4.22-1.53-6.16-2.32-1.94-.79-3.63-1.74-5.07-2.83-1.44-1.1-2.58-2.44-3.43-4.02-.84-1.58-1.26-3.57-1.26-5.98s.45-4.45,1.36-6.23,2.19-3.29,3.84-4.51c1.65-1.22,3.61-2.14,5.87-2.76,2.27-.62,4.76-.93,7.47-.93,3.33,0,6.34,.33,9.04,.98,2.7,.65,5.3,1.63,7.8,2.94l-2.89,7.06c-2.44-.96-4.6-1.66-6.49-2.09s-3.76-.64-5.61-.64c-3.4,0-6.03,.53-7.88,1.6-1.85,1.07-2.78,2.78-2.78,5.15,0,1.17,.34,2.11,1.03,2.83,.69,.72,1.57,1.33,2.65,1.83,1.08,.5,2.31,.94,3.68,1.34,1.37,.4,2.75,.82,4.12,1.26,2.85,.96,5.26,1.99,7.24,3.09,1.97,1.1,3.57,2.32,4.79,3.66,1.22,1.34,2.1,2.82,2.65,4.43,.55,1.61,.82,3.4,.82,5.36,0,2.13-.46,4.12-1.37,5.98-.91,1.85-2.18,3.48-3.81,4.87-1.63,1.39-3.59,2.49-5.87,3.3-2.28,.81-4.8,1.21-7.55,1.21-2.27,0-4.37-.15-6.31-.46s-3.73-.7-5.36-1.16-3.09-.98-4.38-1.55c-1.29-.57-2.41-1.11-3.37-1.62l2.99-7.42Z"/>
    <path class="cls-1" d="M59.46,53.2c.31,2.3,.85,4.35,1.62,6.13,.77,1.79,1.85,3.3,3.22,4.53,1.37,1.24,3.06,2.17,5.05,2.81,1.99,.64,4.33,.95,7.01,.95,2.47,0,4.82-.39,7.06-1.16,2.23-.77,4.26-1.66,6.08-2.65l3.09,7.01c-1.41,.79-2.81,1.49-4.2,2.09-1.39,.6-2.82,1.12-4.28,1.55-1.46,.43-2.97,.75-4.53,.98-1.56,.22-3.24,.33-5.02,.33-8.17,0-14.36-2.34-18.57-7.01-4.21-4.67-6.31-11.56-6.31-20.66,0-4.26,.57-8.03,1.73-11.31,1.15-3.28,2.78-6.04,4.89-8.29,2.11-2.25,4.65-3.96,7.62-5.13,2.97-1.17,6.28-1.75,9.92-1.75,2.92,0,5.64,.44,8.16,1.31,2.52,.88,4.71,2.07,6.57,3.58s3.31,3.31,4.38,5.41c1.06,2.09,1.6,4.35,1.6,6.75,0,1.99-.28,3.87-.85,5.64-.57,1.77-1.53,3.31-2.89,4.61-1.36,1.31-3.17,2.34-5.44,3.12-2.27,.77-5.08,1.16-8.45,1.16h-17.46Zm14.01-23.34c-2.1,0-3.96,.39-5.59,1.16-1.63,.77-3.03,1.84-4.2,3.19-1.17,1.36-2.11,2.96-2.83,4.82-.72,1.86-1.2,3.85-1.44,5.98h15.97c1.48,0,2.8-.07,3.97-.21,1.17-.14,2.16-.4,2.99-.8,.82-.39,1.45-.96,1.88-1.7,.43-.74,.64-1.73,.64-2.96,0-1.68-.36-3.12-1.08-4.3-.72-1.18-1.63-2.16-2.73-2.94-1.1-.77-2.32-1.34-3.66-1.7-1.34-.36-2.65-.54-3.92-.54Z"/>
    <path class="cls-1" d="M108.55,30.33c1.17-.79,2.65-1.68,4.46-2.68,1.8-1,3.85-1.94,6.16-2.83,2.3-.89,4.82-1.65,7.55-2.27,2.73-.62,5.59-.93,8.58-.93,3.33,0,6.14,.53,8.42,1.6,2.28,1.07,4.11,2.48,5.49,4.25,1.37,1.77,2.36,3.82,2.96,6.16,.6,2.34,.9,4.77,.9,7.32v33.9h-9.89V41.51c0-1.31-.13-2.64-.39-3.99-.26-1.36-.74-2.59-1.45-3.71-.71-1.12-1.69-2.03-2.94-2.73-1.26-.7-2.87-1.06-4.83-1.06-1.38,0-2.79,.18-4.23,.54-1.45,.36-2.84,.8-4.18,1.31s-2.6,1.07-3.77,1.67c-1.17,.6-2.15,1.14-2.94,1.62v39.67h-9.89V30.33Z"/>
    <path class="cls-1" d="M174.75,3.9c2.03,0,3.56,.43,4.61,1.29,1.05,.86,1.57,2.18,1.57,3.97,0,1.55-.47,2.8-1.42,3.76-.94,.96-2.5,1.44-4.66,1.44-4.22,0-6.34-1.77-6.34-5.31,0-1.79,.53-3.09,1.6-3.91,1.06-.82,2.61-1.24,4.64-1.24Zm-4.89,70.94V22.75h9.89v52.08h-9.89Z"/>
    <path class="cls-1" d="M195.87,63.55c3.16,1.55,6.02,2.61,8.58,3.19,2.56,.59,5.04,.88,7.44,.88,1.37,0,2.63-.21,3.76-.64s2.11-1,2.94-1.7c.82-.7,1.47-1.5,1.93-2.4,.46-.89,.69-1.8,.69-2.73,0-.82-.14-1.6-.44-2.32-.29-.72-.84-1.43-1.65-2.14-.81-.7-1.94-1.42-3.4-2.14-1.46-.72-3.34-1.51-5.64-2.37-2.16-.75-4.22-1.53-6.16-2.32-1.94-.79-3.63-1.74-5.07-2.83-1.44-1.1-2.58-2.44-3.43-4.02-.84-1.58-1.26-3.57-1.26-5.98s.45-4.45,1.36-6.23,2.19-3.29,3.84-4.51c1.65-1.22,3.61-2.14,5.87-2.76,2.27-.62,4.76-.93,7.47-.93,3.33,0,6.34,.33,9.04,.98,2.7,.65,5.3,1.63,7.81,2.94l-2.89,7.06c-2.44-.96-4.6-1.66-6.49-2.09s-3.76-.64-5.61-.64c-3.4,0-6.03,.53-7.88,1.6-1.85,1.07-2.78,2.78-2.78,5.15,0,1.17,.34,2.11,1.03,2.83,.69,.72,1.57,1.33,2.65,1.83,1.08,.5,2.31,.94,3.68,1.34,1.37,.4,2.75,.82,4.12,1.26,2.85,.96,5.26,1.99,7.24,3.09,1.97,1.1,3.57,2.32,4.79,3.66,1.22,1.34,2.1,2.82,2.65,4.43s.83,3.4,.83,5.36c0,2.13-.46,4.12-1.36,5.98-.91,1.85-2.18,3.48-3.81,4.87-1.63,1.39-3.59,2.49-5.87,3.3-2.28,.81-4.8,1.21-7.55,1.21-2.27,0-4.37-.15-6.31-.46s-3.73-.7-5.36-1.16-3.09-.98-4.38-1.55c-1.29-.57-2.41-1.11-3.37-1.62l2.99-7.42Z"/>
    <path class="cls-1" d="M244.86,.5h9.89V26.77c.96-.52,2.09-1.07,3.38-1.67,1.29-.6,2.68-1.16,4.18-1.67,1.5-.52,3.06-.94,4.69-1.29,1.63-.34,3.26-.52,4.88-.52,3.23,0,5.95,.61,8.15,1.83,2.2,1.22,3.96,2.79,5.29,4.71,1.32,1.92,2.27,4.06,2.84,6.41,.57,2.35,.85,4.68,.85,6.98v33.28h-9.79V41.51c0-.41-.02-1-.08-1.75-.05-.76-.17-1.56-.36-2.42-.19-.86-.49-1.73-.9-2.6-.41-.88-.99-1.67-1.73-2.4-.74-.72-1.67-1.3-2.79-1.75-1.12-.45-2.47-.67-4.05-.67-1.1,0-2.37,.17-3.79,.52-1.43,.34-2.84,.76-4.23,1.26-1.39,.5-2.68,1.04-3.87,1.62s-2.07,1.1-2.66,1.55v39.98h-9.89V.5Z"/>
    <path class="cls-1" d="M302.5,48.87c0-4.46,.65-8.39,1.96-11.77,1.31-3.38,3.12-6.22,5.44-8.53,2.32-2.3,5.08-4.03,8.28-5.2,3.2-1.17,6.67-1.75,10.42-1.75,1.99,0,3.92,.14,5.78,.41,1.86,.27,3.62,.63,5.29,1.06,1.67,.43,3.24,.93,4.72,1.49,1.48,.57,2.84,1.14,4.07,1.73v48.53h-8.6l-1.24-5.05c-1.03,.79-2.09,1.55-3.17,2.27-1.08,.72-2.24,1.36-3.48,1.91-1.24,.55-2.59,.99-4.07,1.31-1.48,.33-3.14,.49-5,.49-2.95,0-5.68-.55-8.17-1.65-2.49-1.1-4.65-2.76-6.47-4.97-1.82-2.22-3.24-5.01-4.25-8.4s-1.52-7.34-1.52-11.87Zm9.69-.21c0,3.26,.33,6.07,1,8.42,.67,2.35,1.6,4.3,2.78,5.85,1.19,1.55,2.61,2.69,4.28,3.43s3.49,1.11,5.49,1.11c2.54,0,4.96-.46,7.26-1.37,2.3-.91,4.16-2.03,5.56-3.37V31.87c-.31-.14-.78-.32-1.42-.54-.64-.22-1.4-.44-2.29-.64-.89-.21-1.88-.39-2.96-.54s-2.21-.23-3.37-.23c-2.4,0-4.61,.41-6.62,1.24-2.01,.82-3.74,2.03-5.18,3.61-1.44,1.58-2.56,3.54-3.35,5.87-.79,2.34-1.18,5.02-1.18,8.04Z"/>
  </g>
  <path class="cls-1" d="M426.26,5.93c-.74,.22-1.4,.81-1.81,1.63-.28,.56-.35,.87-.39,1.77-.08,1.87,.33,2.98,1.88,5.08,2.66,3.6,4.46,6.63,6.27,10.55,2.93,6.33,4.59,12.38,5.42,19.74,.29,2.7,.35,8.55,.11,11.45-.72,8.44-2.85,16.04-6.53,23.25-1.18,2.3-3.26,5.7-4.7,7.67-2.12,2.89-2.41,3.58-2.41,5.66,0,1.17,.02,1.32,.35,1.96,.98,1.91,2.99,2.33,5.24,1.08,1.15-.62,3.03-2.9,5.21-6.33,6.22-9.76,9.74-20.24,10.84-32.29,.24-2.57,.27-8.83,.06-11.33-.96-11.57-4.16-21.8-9.76-31.18-1.79-3.02-4.46-6.73-5.36-7.48-1.48-1.22-3.02-1.65-4.42-1.25Z"/>
  <path class="cls-1" d="M409.61,13.64c-1.45,.37-2.36,1.79-2.37,3.7,0,1.51,.45,2.81,1.49,4.31,4.42,6.34,6.97,12.15,8.42,19.22,1.22,5.97,1.35,12.65,.35,18.57-1.27,7.6-4.14,14.62-8.44,20.68-1.32,1.86-1.83,3.21-1.83,4.79,0,2.6,1.66,4.15,3.95,3.73,1.82-.34,3.14-1.49,5.15-4.49,4.69-7.01,7.78-14.92,9.12-23.38,1.28-8.04,.96-16.11-.94-24.04-1.41-5.85-4.27-12.59-7.41-17.42-1.53-2.37-2.05-3.08-2.82-3.88-1.43-1.49-3.2-2.16-4.67-1.78Z"/>
  <path class="cls-1" d="M392.72,21.42c-1.27,.33-2.14,1.58-2.27,3.3-.13,1.69,.32,2.98,1.9,5.52,1.43,2.3,2.42,4.2,3.22,6.19,2.08,5.23,2.95,10.13,2.8,15.84-.2,7.36-2.28,14.11-6.21,20.06-1.34,2.02-1.83,3.53-1.72,5.18,.14,2.04,1.19,3.28,2.85,3.44,1.99,.17,3.86-1.15,5.69-3.97,3.84-5.98,6.24-12.69,7.12-19.93,1.01-8.27-.12-16.57-3.33-24.52-.95-2.37-2.66-5.55-4.15-7.74-1.31-1.93-2.66-3.02-4.2-3.36-.72-.17-1.07-.17-1.72,0Z"/>
  <path class="cls-1" d="M375.24,29.47c-1.54,.89-2.05,3.46-1.18,5.96,.13,.37,.53,1.22,.88,1.88,2.57,4.75,3.7,8.93,3.7,13.78,0,2.95-.34,5.26-1.23,8.17-.48,1.62-1.66,4.34-2.29,5.35-.48,.76-1.01,1.96-1.25,2.81-.24,.88-.27,2.55-.07,3.32,.21,.78,.83,1.71,1.36,2.04,1.86,1.12,4.86-.32,6.51-3.12,1.83-3.09,3.15-6.34,3.96-9.77,2.18-9.14,.96-18.31-3.49-26.51-.96-1.76-2.08-2.98-3.34-3.65-.81-.43-1-.48-1.98-.52-.95-.04-1.13-.01-1.6,.27Z"/>
</svg>