<?xml version="1.0" encoding="UTF-8"?>
<svg id="Layer_1" data-name="Layer 1" xmlns="http://www.w3.org/2000/svg" viewBox="0 0 454.31 97.93">
  <defs>
    <style>
      .cls-1 {
        fill: #fff;
      }
    </style>
  </defs>
  <g>
    <path class="cls-1" d="M3.05,64.33c3.22,1.58,6.14,2.66,8.75,3.26,2.61,.6,5.14,.89,7.59,.89,1.4,0,2.68-.22,3.84-.66s2.16-1.02,3-1.73c.84-.72,1.5-1.53,1.97-2.44s.71-1.84,.71-2.79c0-.84-.15-1.63-.45-2.37-.3-.74-.86-1.46-1.68-2.18-.82-.72-1.98-1.45-3.47-2.18-1.49-.74-3.41-1.54-5.75-2.42-2.21-.77-4.3-1.56-6.28-2.36-1.98-.81-3.7-1.77-5.18-2.89-1.47-1.12-2.64-2.49-3.5-4.1-.86-1.61-1.29-3.64-1.29-6.1s.46-4.54,1.39-6.36,2.23-3.35,3.92-4.6c1.68-1.24,3.68-2.18,5.99-2.81,2.31-.63,4.85-.95,7.62-.95,3.4,0,6.47,.33,9.22,1,2.75,.67,5.4,1.67,7.96,3l-2.94,7.2c-2.49-.98-4.7-1.69-6.62-2.13s-3.84-.66-5.73-.66c-3.47,0-6.15,.54-8.04,1.63-1.89,1.09-2.84,2.84-2.84,5.25,0,1.19,.35,2.16,1.05,2.89,.7,.74,1.6,1.36,2.71,1.87,1.1,.51,2.36,.96,3.76,1.37,1.4,.4,2.8,.83,4.2,1.29,2.91,.98,5.37,2.03,7.38,3.15,2.01,1.12,3.64,2.37,4.89,3.73,1.24,1.37,2.15,2.87,2.71,4.52,.56,1.65,.84,3.47,.84,5.47,0,2.17-.46,4.2-1.39,6.1-.93,1.89-2.23,3.55-3.89,4.97-1.66,1.42-3.66,2.54-5.99,3.36-2.33,.82-4.9,1.23-7.7,1.23-2.31,0-4.46-.16-6.44-.47s-3.8-.71-5.47-1.18-3.15-1-4.47-1.58c-1.31-.58-2.46-1.13-3.44-1.66l3.05-7.57Z"/>
    <path class="cls-1" d="M60.02,53.76c.32,2.35,.87,4.43,1.66,6.25,.79,1.82,1.88,3.36,3.28,4.63,1.4,1.26,3.12,2.22,5.15,2.86,2.03,.65,4.41,.97,7.15,.97,2.52,0,4.92-.39,7.2-1.18,2.28-.79,4.34-1.69,6.2-2.71l3.15,7.15c-1.44,.81-2.86,1.52-4.28,2.13-1.42,.61-2.87,1.14-4.36,1.58-1.49,.44-3.03,.77-4.62,1-1.6,.23-3.3,.34-5.12,.34-8.34,0-14.66-2.38-18.95-7.15s-6.44-11.79-6.44-21.08c0-4.34,.59-8.19,1.76-11.54,1.17-3.35,2.84-6.17,4.99-8.46,2.15-2.29,4.75-4.04,7.78-5.23,3.03-1.19,6.4-1.79,10.12-1.79,2.98,0,5.75,.45,8.33,1.34,2.58,.89,4.81,2.11,6.7,3.65s3.38,3.38,4.47,5.52c1.09,2.14,1.63,4.43,1.63,6.88,0,2.03-.29,3.95-.87,5.76-.58,1.81-1.56,3.37-2.94,4.7-1.38,1.33-3.23,2.39-5.54,3.18-2.31,.79-5.19,1.18-8.62,1.18h-17.82Zm14.3-23.81c-2.14,0-4.04,.39-5.7,1.18-1.66,.79-3.09,1.87-4.28,3.26-1.19,1.39-2.16,3.02-2.89,4.91-.74,1.89-1.23,3.93-1.47,6.1h16.29c1.51,0,2.86-.07,4.05-.21,1.19-.14,2.21-.41,3.05-.81,.84-.4,1.48-.98,1.92-1.73,.44-.75,.66-1.76,.66-3.02,0-1.72-.37-3.18-1.1-4.39-.74-1.21-1.66-2.21-2.79-2.99-1.12-.79-2.37-1.37-3.73-1.74-1.37-.37-2.7-.55-3.99-.55Z"/>
    <path class="cls-1" d="M110.1,30.43c1.19-.81,2.71-1.72,4.55-2.73,1.84-1.02,3.93-1.98,6.28-2.89,2.35-.91,4.91-1.68,7.7-2.31,2.79-.63,5.7-.95,8.75-.95,3.4,0,6.26,.54,8.59,1.63,2.33,1.09,4.2,2.53,5.6,4.34,1.4,1.81,2.41,3.9,3.02,6.28,.61,2.38,.92,4.87,.92,7.46v34.58h-10.09V41.84c0-1.33-.13-2.69-.4-4.07-.26-1.38-.76-2.64-1.47-3.78-.72-1.14-1.72-2.07-3-2.79-1.28-.72-2.92-1.08-4.92-1.08-1.4,0-2.84,.18-4.32,.55-1.47,.37-2.9,.81-4.27,1.34s-2.65,1.1-3.85,1.71c-1.19,.61-2.19,1.16-3,1.65v40.47h-10.09V30.43Z"/>
    <path class="cls-1" d="M177.64,3.47c2.07,0,3.63,.44,4.7,1.31,1.07,.88,1.6,2.23,1.6,4.05,0,1.58-.48,2.86-1.45,3.84-.96,.98-2.55,1.47-4.76,1.47-4.31,0-6.46-1.8-6.46-5.41,0-1.82,.54-3.15,1.63-3.99,1.09-.84,2.66-1.26,4.73-1.26Zm-4.99,72.37V22.7h10.09v53.14h-10.09Z"/>
    <path class="cls-1" d="M199.18,64.33c3.22,1.58,6.14,2.66,8.75,3.26,2.61,.6,5.14,.89,7.59,.89,1.4,0,2.68-.22,3.84-.66s2.16-1.02,3-1.73c.84-.72,1.5-1.53,1.97-2.44,.47-.91,.71-1.84,.71-2.79,0-.84-.15-1.63-.45-2.37-.3-.74-.86-1.46-1.68-2.18-.82-.72-1.98-1.45-3.47-2.18-1.49-.74-3.41-1.54-5.75-2.42-2.21-.77-4.3-1.56-6.28-2.36-1.98-.81-3.7-1.77-5.18-2.89-1.47-1.12-2.64-2.49-3.5-4.1-.86-1.61-1.29-3.64-1.29-6.1s.46-4.54,1.39-6.36,2.23-3.35,3.92-4.6c1.68-1.24,3.68-2.18,5.99-2.81,2.31-.63,4.85-.95,7.62-.95,3.4,0,6.47,.33,9.22,1,2.75,.67,5.4,1.67,7.96,3l-2.94,7.2c-2.49-.98-4.7-1.69-6.62-2.13s-3.84-.66-5.73-.66c-3.47,0-6.15,.54-8.04,1.63-1.89,1.09-2.84,2.84-2.84,5.25,0,1.19,.35,2.16,1.05,2.89,.7,.74,1.6,1.36,2.71,1.87,1.1,.51,2.36,.96,3.76,1.37,1.4,.4,2.8,.83,4.2,1.29,2.91,.98,5.37,2.03,7.38,3.15,2.01,1.12,3.64,2.37,4.89,3.73,1.24,1.37,2.15,2.87,2.71,4.52s.84,3.47,.84,5.47c0,2.17-.47,4.2-1.39,6.1-.93,1.89-2.23,3.55-3.89,4.97-1.66,1.42-3.66,2.54-5.99,3.36-2.33,.82-4.9,1.23-7.7,1.23-2.31,0-4.46-.16-6.44-.47s-3.8-.71-5.47-1.18-3.15-1-4.47-1.58c-1.31-.58-2.46-1.13-3.44-1.66l3.05-7.57Z"/>
    <path class="cls-1" d="M249.16,0h10.09V26.8c.98-.53,2.13-1.1,3.45-1.71,1.32-.61,2.74-1.18,4.26-1.71,1.53-.53,3.12-.96,4.79-1.31,1.67-.35,3.33-.53,4.97-.53,3.3,0,6.07,.62,8.32,1.87,2.25,1.24,4.04,2.85,5.4,4.81,1.35,1.96,2.32,4.14,2.89,6.54,.58,2.4,.87,4.77,.87,7.12v33.95h-9.99V41.84c0-.42-.03-1.02-.08-1.79-.05-.77-.18-1.59-.37-2.47-.19-.88-.5-1.76-.92-2.65-.42-.89-1.01-1.71-1.76-2.44-.76-.74-1.7-1.33-2.84-1.79-1.14-.45-2.52-.68-4.13-.68-1.12,0-2.41,.18-3.87,.53-1.46,.35-2.9,.78-4.32,1.29-1.42,.51-2.74,1.06-3.95,1.66s-2.12,1.12-2.71,1.58v40.79h-10.09V0Z"/>
    <path class="cls-1" d="M307.97,49.35c0-4.55,.67-8.56,2-12.01,1.33-3.45,3.18-6.35,5.55-8.7,2.37-2.35,5.18-4.12,8.44-5.31,3.26-1.19,6.8-1.79,10.63-1.79,2.04,0,4,.14,5.89,.42,1.89,.28,3.69,.64,5.39,1.08,1.7,.44,3.31,.95,4.81,1.52,1.51,.58,2.89,1.16,4.16,1.76v49.51h-8.77l-1.27-5.15c-1.05,.81-2.13,1.58-3.23,2.31-1.1,.74-2.29,1.39-3.55,1.94-1.26,.56-2.65,1.01-4.15,1.34-1.51,.33-3.21,.5-5.1,.5-3.01,0-5.79-.56-8.33-1.68-2.54-1.12-4.74-2.81-6.6-5.07-1.86-2.26-3.3-5.12-4.34-8.57s-1.55-7.49-1.55-12.11Zm9.88-.21c0,3.33,.34,6.19,1.02,8.59,.68,2.4,1.63,4.39,2.84,5.96,1.21,1.58,2.66,2.74,4.36,3.5s3.57,1.13,5.6,1.13c2.59,0,5.06-.46,7.41-1.39,2.35-.93,4.24-2.08,5.68-3.44v-31.48c-.32-.14-.8-.32-1.45-.55-.65-.23-1.43-.45-2.34-.66-.91-.21-1.92-.39-3.02-.55s-2.25-.24-3.44-.24c-2.45,0-4.7,.42-6.75,1.26-2.05,.84-3.81,2.07-5.28,3.68-1.47,1.61-2.61,3.61-3.42,5.99-.81,2.38-1.21,5.12-1.21,8.2Z"/>
  </g>
  <path class="cls-1" d="M434.23,5.54c-.76,.22-1.43,.83-1.85,1.66-.29,.57-.36,.88-.4,1.8-.08,1.91,.34,3.04,1.92,5.18,2.71,3.67,4.55,6.76,6.39,10.76,2.99,6.45,4.68,12.63,5.53,20.14,.3,2.75,.36,8.73,.11,11.69-.73,8.61-2.9,16.36-6.66,23.72-1.2,2.35-3.32,5.82-4.8,7.83-2.16,2.95-2.46,3.65-2.46,5.78,0,1.19,.02,1.35,.36,2,1,1.95,3.05,2.38,5.35,1.1,1.18-.64,3.09-2.96,5.31-6.45,6.35-9.96,9.93-20.64,11.06-32.94,.24-2.62,.28-9.01,.06-11.56-.98-11.8-4.25-22.24-9.96-31.81-1.82-3.08-4.55-6.87-5.47-7.63-1.51-1.25-3.08-1.69-4.51-1.27Z"/>
  <path class="cls-1" d="M417.24,13.41c-1.48,.38-2.41,1.83-2.42,3.78,0,1.55,.46,2.87,1.52,4.4,4.51,6.47,7.11,12.4,8.59,19.61,1.25,6.09,1.38,12.91,.36,18.94-1.3,7.75-4.22,14.92-8.61,21.1-1.34,1.9-1.87,3.27-1.87,4.88,0,2.65,1.69,4.23,4.03,3.8,1.86-.35,3.2-1.52,5.25-4.58,4.79-7.15,7.94-15.22,9.31-23.85,1.31-8.21,.98-16.44-.96-24.53-1.44-5.97-4.35-12.84-7.56-17.77-1.56-2.41-2.09-3.14-2.88-3.96-1.46-1.52-3.26-2.21-4.76-1.82Z"/>
  <path class="cls-1" d="M400.01,21.34c-1.3,.34-2.18,1.61-2.32,3.36-.13,1.73,.32,3.04,1.94,5.63,1.46,2.35,2.47,4.28,3.29,6.31,2.12,5.34,3.01,10.34,2.85,16.16-.2,7.5-2.33,14.4-6.33,20.46-1.37,2.06-1.87,3.6-1.75,5.28,.14,2.08,1.21,3.35,2.9,3.51,2.03,.17,3.93-1.17,5.81-4.05,3.92-6.1,6.37-12.94,7.27-20.33,1.03-8.44-.12-16.9-3.39-25.02-.97-2.41-2.71-5.66-4.23-7.89-1.33-1.97-2.71-3.08-4.28-3.43-.73-.17-1.09-.17-1.75,0Z"/>
  <path class="cls-1" d="M382.18,29.56c-1.57,.91-2.09,3.53-1.2,6.08,.13,.38,.54,1.25,.9,1.92,2.63,4.84,3.78,9.11,3.78,14.06,0,3.01-.35,5.36-1.26,8.34-.49,1.65-1.69,4.43-2.34,5.45-.49,.78-1.03,2-1.27,2.87-.24,.9-.28,2.6-.07,3.39,.22,.79,.85,1.74,1.39,2.08,1.9,1.14,4.95-.32,6.65-3.18,1.87-3.16,3.21-6.47,4.04-9.97,2.22-9.32,.98-18.68-3.56-27.05-.98-1.79-2.12-3.04-3.41-3.73-.83-.44-1.02-.49-2.02-.53-.97-.04-1.15-.01-1.63,.27Z"/>
</svg>